<?xml version="1.0" standalone="no"?>
<!DOCTYPE svg PUBLIC "-//W3C//DTD SVG 20010904//EN"
 "http://www.w3.org/TR/2001/REC-SVG-20010904/DTD/svg10.dtd">
<svg version="1.0" xmlns="http://www.w3.org/2000/svg"
 width="354.000000pt" height="354.000000pt" viewBox="0 0 354.000000 354.000000"
 preserveAspectRatio="xMidYMid meet">
<metadata>
Created by potrace 1.11, written by Peter Selinger 2001-2013
</metadata>
<g transform="translate(0.000000,354.000000) scale(0.100000,-0.100000)"
fill="#000000" stroke="none">
<path d="M0 1770 l0 -1770 1770 0 1770 0 0 1770 0 1770 -1770 0 -1770 0 0
-1770z m1768 780 c7 0 378 115 823 255 446 140 815 255 820 255 5 0 8 -408 7
-1036 l-3 -1037 -823 -259 -823 -259 -717 227 c-394 124 -765 241 -824 260
l-108 35 0 1038 0 1038 818 -258 c449 -143 823 -259 830 -259z"/>
<path d="M180 2007 l0 -973 678 -214 c372 -117 723 -228 780 -246 l102 -32 -2
976 -3 976 -770 243 c-424 134 -773 243 -777 243 -5 0 -8 -438 -8 -973z m145
459 l50 -16 98 -417 c54 -230 104 -454 113 -497 8 -44 16 -81 17 -83 2 -1 9
28 16 65 8 37 63 220 124 407 60 187 112 347 114 356 4 14 11 14 71 -4 l67
-20 113 -406 c63 -223 122 -448 133 -500 11 -52 21 -96 23 -98 2 -2 11 29 20
69 14 61 206 768 211 775 1 2 31 -7 66 -20 l65 -22 -142 -485 c-78 -267 -144
-493 -147 -502 -5 -16 -9 -16 -65 3 -52 18 -62 25 -71 52 -18 59 -229 831
-246 902 -9 39 -19 77 -22 85 -2 8 -15 -25 -28 -75 -13 -49 -73 -241 -133
-425 l-110 -335 -28 1 c-16 1 -45 8 -64 16 l-35 15 -143 584 c-79 321 -143
588 -142 593 0 4 6 6 13 4 6 -3 35 -12 62 -22z"/>
<path d="M2570 2736 l-765 -242 -3 -972 c-2 -762 1 -972 10 -972 7 0 356 108
775 240 420 132 765 240 768 240 3 0 5 439 5 975 0 774 -3 975 -12 974 -7 0
-357 -110 -778 -243z m240 -474 c22 -11 44 -36 58 -63 20 -38 23 -55 19 -119
-5 -98 -32 -151 -153 -301 -104 -128 -133 -183 -134 -247 0 -44 -1 -46 -69
-67 l-24 -7 6 71 c8 97 37 154 144 286 99 123 123 171 123 246 0 43 -5 55 -31
81 -28 29 -34 30 -87 25 -68 -6 -175 -52 -248 -107 l-52 -39 -18 41 -18 41 29
24 c148 120 362 184 455 135z m-186 -918 c10 -10 16 -33 16 -65 0 -62 -36
-107 -92 -116 -53 -8 -68 8 -68 71 0 60 18 92 64 112 41 18 61 17 80 -2z"/>
</g>
</svg>
